<?xml version="1.0" encoding="UTF-8" standalone="no"?>
<svg
   xmlns:dc="http://purl.org/dc/elements/1.1/"
   xmlns:cc="http://creativecommons.org/ns#"
   xmlns:rdf="http://www.w3.org/1999/02/22-rdf-syntax-ns#"
   xmlns:svg="http://www.w3.org/2000/svg"
   xmlns="http://www.w3.org/2000/svg"
   viewBox="0 0 200 200"
   height="200"
   width="200"
   id="svg869"
   version="1.1">
  <metadata
     id="metadata875">
    <rdf:RDF>
      <cc:Work
         rdf:about="">
        <dc:format>image/svg+xml</dc:format>
        <dc:type
           rdf:resource="http://purl.org/dc/dcmitype/StillImage" />
        <dc:title></dc:title>
      </cc:Work>
    </rdf:RDF>
  </metadata>
  <defs
     id="defs873" />
  <path
     id="path1739"
     d="m 72.375,181.17026 c -0.240625,-0.0245 -1.084375,-0.10555 -1.875,-0.18012 -7.260836,-0.68487 -14.979273,-3.59731 -20.9375,-7.90049 -2.579081,-1.86268 -5.689665,-4.70749 -7.683653,-7.02715 -5.093007,-5.92485 -8.536158,-13.14031 -9.931547,-20.8125 -0.651934,-3.5845 -0.617926,-1.83429 -0.666709,-34.3125 -0.04722,-31.437483 -0.04344,-31.700484 0.48833,-33.981678 1.423663,-6.107245 5.974129,-11.20903 11.89128,-13.331983 4.735873,-1.699137 10.208513,-1.39272 14.597016,0.817296 0.491373,0.247451 0.909878,0.432238 0.930013,0.410638 0.02014,-0.0216 0.38457,-0.50982 0.809855,-1.084933 2.508342,-3.392032 6.377429,-5.942436 10.559284,-6.960412 4.262343,-1.03757 8.949832,-0.509392 12.820703,1.444618 0.425274,0.214678 0.789773,0.372578 0.809997,0.350889 0.02022,-0.02169 0.384731,-0.509982 0.810016,-1.085095 2.508342,-3.392032 6.377429,-5.942436 10.559284,-6.960412 2.930189,-0.713288 6.159111,-0.687619 9.167431,0.07288 0.80504,0.203512 1.47508,0.370173 1.48899,0.370358 0.0139,1.25e-4 0.0454,-3.613726 0.07,-8.030914 0.0433,-7.782796 0.0534,-8.069529 0.32483,-9.268626 1.12283,-4.959299 3.88852,-9.048125 7.95878,-11.766334 4.81839,-3.217827 10.82618,-4.023319 16.32267,-2.188451 2.7084,0.904132 4.9508,2.257137 6.99886,4.222916 2.95681,2.838015 4.65319,5.999851 5.58339,10.406745 0.17681,0.837613 0.20255,4.273879 0.24158,32.251446 l 0.0437,31.313945 0.59047,0.37229 c 0.32475,0.20476 1.04046,0.732434 1.59046,1.17261 5.45347,4.364517 8.85634,10.762967 10.01284,18.827207 0.3045,2.12328 0.30966,6.9826 0.01,9.4375 -0.24508,2.00793 -0.83195,5.08918 -1.22613,6.4375 -0.80424,2.75104 -5.40519,17.54511 -5.73315,18.4346 -3.51351,9.52914 -10.52356,17.79352 -19.37607,22.8431 -4.96851,2.83409 -10.0697,4.54278 -16.23756,5.43889 -1.79195,0.26035 -2.17528,0.26555 -21.199943,0.28792 -10.65625,0.0125 -19.571875,0.003 -19.8125,-0.0217 z m 39.81817,-12.7008 c 3.54879,-0.58258 6.06622,-1.33561 8.99433,-2.69042 5.16764,-2.39104 9.70305,-6.32781 12.94137,-11.23323 0.94884,-1.43728 2.54328,-4.58717 3.12363,-6.17081 0.4814,-1.31365 5.25497,-16.80068 5.6156,-18.21884 0.97132,-3.81969 1.12421,-8.76907 0.37167,-12.03116 -0.82677,-3.5838 -2.11355,-6.01326 -4.28396,-8.08819 -1.82331,-1.7431 -3.85446,-2.87772 -6.0965,-3.40555 -0.57575,-0.13555 -10.21556,-1.43017 -21.42181,-2.87693 -11.20625,-1.44677 -20.644956,-2.68647 -20.974902,-2.75491 -2.030824,-0.42121 -4.0537,0.19075 -5.530188,1.67299 -1.275381,1.28035 -1.876002,2.90752 -1.783946,4.83297 0.04078,0.85287 0.123331,1.22413 0.396234,1.78192 0.615948,1.25896 1.892851,2.33202 3.716371,3.12312 0.604254,0.26214 7.572784,2.12049 20.022611,5.33958 11.43707,2.95722 19.08237,4.99154 19.06231,5.07225 -0.0184,0.0741 -2.11159,3.94332 -4.6515,8.59825 -2.95343,5.4128 -4.67857,8.4506 -4.78603,8.42775 -0.30071,-0.064 -10.77195,-5.78275 -10.77779,-5.88619 -0.003,-0.0553 0.36583,-0.77594 0.81989,-1.60154 0.45405,-0.82558 0.80207,-1.52456 0.77337,-1.55326 -0.0287,-0.0287 -5.27989,-1.40464 -11.669309,-3.05764 -6.389417,-1.65299 -11.926496,-3.12405 -12.304621,-3.269 -3.360479,-1.28819 -5.91871,-2.88465 -8.069627,-5.03584 -1.903918,-1.90415 -3.026091,-3.61788 -3.933648,-6.00728 -0.473156,-1.24572 -0.47664,-1.25055 -1.017004,-1.4117 -3.320324,-0.99021 -5.004704,-1.80538 -7.198471,-3.48375 L 62.5,107.75307 l -1.03125,0.78898 c -3.840231,2.93803 -8.42224,4.28934 -13.068631,3.85416 -1.535751,-0.14384 -3.897564,-0.62725 -4.41343,-0.90333 -0.244735,-0.13098 -0.246154,-0.0299 -0.203246,14.46886 0.04658,15.73935 0.02123,15.09325 0.71999,18.35076 0.635363,2.96196 2.360405,7.19731 3.945678,9.6875 2.5268,3.96916 6.08173,7.52409 10.050889,10.05089 3.428865,2.18285 8.516573,3.97175 12.625,4.43912 0.653125,0.0743 1.35625,0.15563 1.5625,0.18073 0.20625,0.0251 8.896875,0.0365 19.3125,0.0252 16.94045,-0.0182 19.06992,-0.0421 20.19317,-0.22653 z M 51.275097,99.861865 c 2.342572,-0.488514 4.348254,-2.494196 4.836768,-4.836768 0.187582,-0.899521 0.189903,-13.945761 0.0027,-14.970889 C 55.596349,77.217231 52.913966,75 50,75 47.124644,75 44.475995,77.155933 43.888135,79.974902 43.797009,80.411883 43.75,82.972757 43.75,87.5 c 0,4.527242 0.04701,7.088117 0.138135,7.525097 0.474819,2.276902 2.386704,4.247137 4.65535,4.797427 0.823365,0.199716 1.888959,0.215066 2.731612,0.03934 z M 72.699499,98.46875 c 1.609145,-3.22173 4.36442,-6.042396 7.706751,-7.889656 L 81.25,90.112765 81.247825,82.337632 C 81.2461,76.14668 81.209905,74.393846 81.070201,73.73475 80.040151,68.875205 74.097228,67.099852 70.623323,70.613916 70.175528,71.066887 69.657066,71.722961 69.471186,72.071857 68.739167,73.445866 68.75,73.262644 68.75,84.27011 c 0,6.885259 0.0439,10.30309 0.138135,10.754987 0.316301,1.516763 1.349571,3.039083 2.66324,3.923758 0.348034,0.23438 0.646894,0.426145 0.664135,0.426145 0.01724,0 0.235036,-0.407813 0.483989,-0.90625 z m 58.548321,-33.0625 c -0.002,-24.137189 -0.0288,-28.46934 -0.18148,-29.189976 -0.83065,-3.919917 -5.20956,-6.07503 -8.79311,-4.327584 -1.02595,0.500285 -2.25321,1.654575 -2.74983,2.586334 -0.82976,1.55679 -0.7734,-0.624146 -0.7734,29.926239 0,22.092693 0.0317,27.724866 0.15625,27.729292 0.0859,0.0031 2.85625,0.363146 6.15625,0.800201 3.3,0.437055 6.04219,0.80018 6.09375,0.806945 0.0516,0.0068 0.0928,-12.742389 0.0916,-28.331451 z m -24.99876,14.125 c -6.3e-4,-6.909655 -0.0486,-11.269424 -0.12967,-11.78125 -0.0708,-0.446875 -0.31569,-1.20625 -0.54422,-1.6875 -1.84827,-3.892218 -6.926439,-4.758961 -9.951842,-1.698584 -0.447795,0.452972 -0.966257,1.109045 -1.152137,1.457942 C 93.737193,67.199573 93.75,66.97618 93.75,78.401263 c 0,5.760554 0.04219,10.476237 0.09375,10.479292 0.05156,0.0031 2.79375,0.363146 6.09375,0.800201 3.3,0.437055 6.07031,0.80018 6.15625,0.806945 0.12391,0.0097 0.15605,-2.257761 0.15531,-10.956451 z"
     style="fill:#ffffff;stroke-width:0.125" />
  <path
     id="path1678"
     d=""
     style="fill:#000000" />
</svg>
