<?xml version="1.0" encoding="UTF-8" standalone="no"?>
<svg
   xmlns:dc="http://purl.org/dc/elements/1.1/"
   xmlns:cc="http://creativecommons.org/ns#"
   xmlns:rdf="http://www.w3.org/1999/02/22-rdf-syntax-ns#"
   xmlns:svg="http://www.w3.org/2000/svg"
   xmlns="http://www.w3.org/2000/svg"
   viewBox="0 0 200 200"
   height="200"
   width="200"
   id="svg869"
   version="1.1">
  <metadata
     id="metadata875">
    <rdf:RDF>
      <cc:Work
         rdf:about="">
        <dc:format>image/svg+xml</dc:format>
        <dc:type
           rdf:resource="http://purl.org/dc/dcmitype/StillImage" />
        <dc:title></dc:title>
      </cc:Work>
    </rdf:RDF>
  </metadata>
  <defs
     id="defs873" />
  <path
     id="path1678"
     d=""
     style="fill:#000000" />
  <path
     id="path1691"
     d="M 85.635161,180.07882 C 31.219084,151.80472 -0.00994539,112.75 2.3758655e-6,72.984352 0.00623271,49.613029 10.58798,31.331745 29.712578,21.654075 53.520073,9.606717 81.913916,17.616258 96.205175,40.410781 l 3.853915,6.146969 3.41351,-5.366327 c 11.3651,-17.866811 31.48731,-27.627372 50.85377,-24.667317 19.89819,3.041318 36.4368,17.218155 43.2736,37.093958 2.98002,8.663462 3.22802,27.347822 0.50222,37.838546 -7.17922,27.63065 -30.53573,55.12229 -65.54127,77.14494 C 120.24219,176.3515 101.58605,186 98.919618,186 c -1.038742,0 -7.016739,-2.66453 -13.284457,-5.92118 z"
     style="fill:#ffffff;stroke-width:1.0684309" />
</svg>
